# xmcd
#
# Track frame offsets:
#	150
#	29325
#	54744
#	82922
#	97995
#	107774
#	118969
#	141063
#	161966
#	182099
#	205044
#	224352
#	242162
#	263953
#	280618
#	302234
#	314748
#	326539
#	343353
#
# Disc length: 4718 seconds
#
# Revision: 1
# Processed by: cddbd v1.4PL0 Copyright (c) Steve Scherf et al.
# Submitted via: EasyCDDAExtractor 6.0.0.1
#
DISCID=24126c13
DTITLE=Various Artist - Canta Pablo...    Canta
DYEAR=2003
DGENRE=Trova/Bolero
TTITLE0=Pablo Milanes - El breve espacio 
TTITLE1=Pablo Milanes - El tiempo El implacable El que paso
TTITLE2=Pablo Milanes - La felicidad 
TTITLE3=Pablo Milanes y Caco Senante - Alli
TTITLE4=Pablo Milanes - La tarde
TTITLE5=Pablo Milanes - Pensamiento
TTITLE6=Pablo Milanes - A mi lado
TTITLE7=Pablo Milanes - El amor de mi vida
TTITLE8=Pablo Milanes - El primer amor
TTITLE9=Pablo Milanes - La felicidad 2v
TTITLE10=Pablo Milanes - La novia que nunca tuve
TTITLE11=Pablo Milanes - Mirame bien
TTITLE12=Pablo Milanes y Caco Senante - Flor de Ausencia
TTITLE13=Pablo Milanes - Para vivir
TTITLE14=Pablo Milanes - Yolanda
TTITLE15=Pablo Milanes y Mana - Si ella me faltara alguna vez
TTITLE16=Pablo Milanes - Ausencia
TTITLE17=Pablo Milanes - Pablo Milanes - Ya ves
TTITLE18=Pablo Milanes - Mi ultimo fracaso
EXTD=
EXTT0=
EXTT1=
EXTT2=
EXTT3=
EXTT4=
EXTT5=
EXTT6=
EXTT7=
EXTT8=
EXTT9=
EXTT10=
EXTT11=
EXTT12=
EXTT13=
EXTT14=
EXTT15=
EXTT16=
EXTT17=
EXTT18=
PLAYORDER=
